<?xml version="1.0" encoding="UTF-8"?>
<svg xmlns="http://www.w3.org/2000/svg" xmlns:xlink="http://www.w3.org/1999/xlink" width="52px" height="60px" viewBox="0 0 52 60" version="1.1">
    <!-- Generator: Sketch 51.3 (57544) - http://www.bohemiancoding.com/sketch -->
    <title>028 - Programming Reward</title>
    <desc>Created with Sketch.</desc>
    <defs/>
    <g id="Page-1" stroke="none" stroke-width="1" fill="none" fill-rule="evenodd">
        <g id="028---Programming-Reward" transform="translate(1.000000, 1.000000)">
            <path d="M27,26.95 C27.25,26.95 27.51,26.96 27.77,26.98 C27.565944,27.2581547 27.3115501,27.495589 27.02,27.68 C26.9720016,27.7074022 26.9218328,27.7308143 26.87,27.75 L27,26.95 Z" id="Shape" fill="#FF8800" fill-rule="nonzero"/>
            <path d="M48.13,51.03 L46.21,50.84 C46.1917648,50.7419437 46.1580075,50.6474233 46.11,50.56 L33.64,26.6 C33.39,26.73 32.26,25.92 31.23,25.21 C31.5323027,24.4985907 31.9365398,23.8349682 32.43,23.24 C32.76,22.91 36.18,25.84 36.64,25.6 L49.11,49.56 C49.2857943,49.8856637 49.2673569,50.2817884 49.0620725,50.589715 C48.8567881,50.8976416 48.4982258,51.0670164 48.13,51.03 Z" id="Shape" fill="#FFB600" fill-rule="nonzero"/>
            <path d="M46.21,50.84 L40.72,50.29 C40.2896476,50.2404561 39.878214,50.4807985 39.71,50.88 L39.45,51.46 L36.8,57.41 C36.6444514,57.7522652 36.3100796,57.9783673 35.9345055,57.995247 C35.5589314,58.0121267 35.2056249,57.8169316 35.02,57.49 L34.57,56.68 L25,39.22 L26.87,27.75 C26.9218328,27.7308143 26.9720016,27.7074022 27.02,27.68 C27.3115501,27.495589 27.565944,27.2581547 27.77,26.98 C28.5333041,27.0913086 29.3125253,26.9874124 30.02,26.68 C30.5523205,26.3122027 30.9713846,25.8030919 31.23,25.21 C32.26,25.92 33.39,26.73 33.64,26.6 L46.11,50.56 C46.1580075,50.6474233 46.1917648,50.7419437 46.21,50.84 Z" id="Shape" fill="#FFE100" fill-rule="nonzero"/>
            <path d="M31.23,25.21 C30.9713846,25.8030919 30.5523205,26.3122027 30.02,26.68 C29.3125253,26.9874124 28.5333041,27.0913086 27.77,26.98 C28.2586906,26.0290345 28.8133809,25.1134613 29.43,24.24 C29.58,24.09 30.37,24.62 31.23,25.21 Z" id="Shape" fill="#FF8800" fill-rule="nonzero"/>
            <path d="M29.99,30.13 L14.98,57.49 C14.7943751,57.8169316 14.4410686,58.0121267 14.0654945,57.995247 C13.6899204,57.9783673 13.3555486,57.7522652 13.2,57.41 L12.32,55.44 L26.34,29.88 C27.1284548,30.1873321 27.9767037,30.310465 28.82,30.24 C29.000011,30.1904481 29.1840675,30.1569833 29.37,30.14 L29.48,30.14 C29.6496469,30.1264681 29.819953,30.1231288 29.99,30.13 Z" id="Shape" fill="#FFB600" fill-rule="nonzero"/>
            <path d="M26.34,29.88 L12.32,55.44 L10.29,50.88 C10.121786,50.4807985 9.71035237,50.2404561 9.28,50.29 L8.27,50.39 L4.69,50.75 L5.59,48.39 L14.12,26 C14.3385709,26.3649554 14.6400478,26.6732841 15,26.9 C16.15,27.56 17.87,26.92 19.18,27.28 C20.45,27.62 21.62,29.04 23,29.04 C24.1393488,29.2039337 25.2586541,29.4854356 26.34,29.88 Z" id="Shape" fill="#FFE100" fill-rule="nonzero"/>
            <path d="M18.54,24.99 L18.54,25 L4.69,50.75 L1.87,51.03 C1.50177416,51.0670164 1.14321192,50.8976416 0.937927516,50.589715 C0.732643111,50.2817884 0.714205707,49.8856637 0.89,49.56 L13.36,25.6 C13.55,25.7 13.74,25.81 13.92,25.92 C13.9792123,25.9472806 14.0333251,25.9844831 14.08,26.03 C14.26,26.14 16.85,22.31 17,22.46 C17.4776763,23.0349697 17.8715817,23.6746451 18.17,24.36 C18.29,24.58 18.41,24.79 18.54,24.99 Z" id="Shape" fill="#FFB600" fill-rule="nonzero"/>
            <path d="M39.24,19.82 C38.88,21.13 39.52,22.85 38.86,24 C38.18,25.17 36.36,25.47 35.42,26.42 C34.48,27.37 34.17,29.18 33,29.86 C31.85,30.52 30.13,29.88 28.82,30.24 C27.55,30.58 26.38,32 25,32 C24.4671715,31.9709495 23.9507068,31.8056808 23.5,31.52 C22.7791559,31.0044362 22.0005443,30.5748574 21.18,30.24 C19.87,29.88 18.15,30.52 17,29.86 C15.83,29.18 15.53,27.36 14.58,26.42 C13.63,25.48 11.82,25.17 11.14,24 C10.48,22.85 11.12,21.13 10.76,19.82 C10.42,18.55 9,17.38 9,16 C9,14.62 10.42,13.45 10.76,12.18 C11.12,10.87 10.48,9.15 11.14,8 C11.82,6.83 13.64,6.53 14.58,5.58 C15.52,4.63 15.83,2.82 17,2.14 C18.15,1.48 19.87,2.12 21.18,1.76 C22.0005443,1.42514264 22.7791559,0.995563826 23.5,0.48 C23.9507068,0.194319246 24.4671715,0.0290505194 25,0 C26.38,0 27.55,1.42 28.82,1.76 C30.13,2.12 31.85,1.48 33,2.14 C34.17,2.82 34.47,4.64 35.42,5.58 C36.37,6.52 38.18,6.83 38.86,8 C39.52,9.15 38.88,10.87 39.24,12.18 C39.58,13.45 41,14.62 41,16 C41,17.38 39.58,18.55 39.24,19.82 Z" id="Shape" fill="#FFB600" fill-rule="nonzero"/>
            <path d="M36.24,19.82 C35.88,21.13 36.52,22.85 35.86,24 C35.18,25.17 33.36,25.47 32.42,26.42 C31.48,27.37 31.17,29.18 30,29.86 C28.85,30.52 27.13,29.88 25.82,30.24 C24.9994557,30.5748574 24.2208441,31.0044362 23.5,31.52 C22.7791559,31.0044362 22.0005443,30.5748574 21.18,30.24 C19.87,29.88 18.15,30.52 17,29.86 C15.83,29.18 15.53,27.36 14.58,26.42 C13.63,25.48 11.82,25.17 11.14,24 C10.48,22.85 11.12,21.13 10.76,19.82 C10.42,18.55 9,17.38 9,16 C9,14.62 10.42,13.45 10.76,12.18 C11.12,10.87 10.48,9.15 11.14,8 C11.82,6.83 13.64,6.53 14.58,5.58 C15.52,4.63 15.83,2.82 17,2.14 C18.15,1.48 19.87,2.12 21.18,1.76 C22.0005443,1.42514264 22.7791559,0.995563826 23.5,0.48 C24.2208441,0.995563826 24.9994557,1.42514264 25.82,1.76 C27.13,2.12 28.85,1.48 30,2.14 C31.17,2.82 31.47,4.64 32.42,5.58 C33.37,6.52 35.18,6.83 35.86,8 C36.52,9.15 35.88,10.87 36.24,12.18 C36.58,13.45 38,14.62 38,16 C38,17.38 36.58,18.55 36.24,19.82 Z" id="Shape" fill="#FFE100" fill-rule="nonzero"/>
            <path d="M36,16 C36.0015929,18.9178694 34.8431791,21.716688 32.7799336,23.7799336 C30.716688,25.8431791 27.9178694,27.0015929 25,27 C24.4978502,27.0038906 23.9962102,26.9671037 23.5,26.89 C18.05758,26.143366 14.0019759,21.4933958 14.0019759,16 C14.0019759,10.5066042 18.05758,5.856634 23.5,5.11 C23.9962102,5.0328963 24.4978502,4.99610937 25,5 C27.9178694,4.99840713 30.716688,6.15682085 32.7799336,8.22006641 C34.8431791,10.283312 36.0015929,13.0821306 36,16 Z" id="Shape" fill="#FF8800" fill-rule="nonzero"/>
            <ellipse id="Oval" fill="#FFB600" fill-rule="nonzero" cx="23.5" cy="16" rx="9.5" ry="10.89"/>
            <path d="M1.87,51.03 L4.142,50.8 C3.77179216,50.5004075 3.66609913,49.9803307 3.89,49.56 L16.359,25.6 C15.4875926,25.278387 14.7203989,24.7252054 14.14,24 C13.48,22.85 14.12,21.13 13.76,19.82 C13.42,18.55 12,17.38 12,16 C12,14.62 13.42,13.45 13.76,12.18 C14.12,10.87 13.48,9.15 14.14,8 C14.82,6.83 16.64,6.53 17.58,5.58 C18.52,4.63 18.83,2.82 20,2.14 C21.15,1.48 22.87,2.12 24.18,1.76 C25.0005443,1.42514264 25.7791559,0.995563826 26.5,0.48 C26.0502253,0.192330729 25.5332239,0.0268902746 25,0 C24.4671715,0.0290505194 23.9507068,0.194319246 23.5,0.48 C22.7791559,0.995563826 22.0005443,1.42514264 21.18,1.76 C19.87,2.12 18.15,1.48 17,2.14 C15.83,2.82 15.53,4.63 14.58,5.58 C13.63,6.53 11.82,6.83 11.14,8 C10.48,9.15 11.12,10.87 10.76,12.18 C10.42,13.45 9,14.62 9,16 C9,17.38 10.42,18.55 10.76,19.82 C11.12,21.13 10.48,22.85 11.14,24 C11.7203989,24.7252054 12.4875926,25.278387 13.359,25.6 L0.89,49.56 C0.714205707,49.8856637 0.732643111,50.2817884 0.937927516,50.589715 C1.14321192,50.8976416 1.50177416,51.0670164 1.87,51.03 Z M14.08,26.03 C14.0414683,25.9935973 13.9976361,25.9632519 13.95,25.94 C13.996,25.969 14.042,25.997 14.087,26.027 L14.08,26.03 Z M13.896,25.906 C13.748,25.816 13.596,25.729 13.439,25.645 C13.6,25.728 13.748,25.816 13.9,25.906 L13.896,25.906 Z" id="Shape" fill="#FFFFFF" fill-rule="nonzero"/>
            <circle id="Oval" stroke="#000000" stroke-width="2" stroke-linecap="round" stroke-linejoin="round" cx="25" cy="16" r="11"/>
            <path d="M41,16 C41,17.376 39.575,18.546 39.236,19.815 C38.885,21.128 39.523,22.852 38.858,24.002 C38.184,25.168 36.365,25.473 35.419,26.419 C34.473,27.365 34.168,29.184 33,29.858 C31.85,30.524 30.126,29.885 28.813,30.236 C27.546,30.575 26.376,32 25,32 C23.624,32 22.454,30.575 21.185,30.236 C19.872,29.885 18.148,30.523 16.998,29.858 C15.832,29.184 15.527,27.365 14.581,26.419 C13.635,25.473 11.816,25.168 11.142,24 C10.476,22.85 11.115,21.126 10.764,19.813 C10.425,18.546 9,17.376 9,16 C9,14.624 10.425,13.454 10.764,12.185 C11.115,10.872 10.477,9.148 11.142,7.998 C11.816,6.832 13.635,6.527 14.581,5.581 C15.527,4.635 15.832,2.816 17,2.142 C18.15,1.476 19.874,2.115 21.187,1.764 C22.454,1.425 23.624,0 25,0 C26.376,0 27.546,1.425 28.815,1.764 C30.128,2.115 31.852,1.477 33.002,2.142 C34.168,2.816 34.473,4.635 35.419,5.581 C36.365,6.527 38.184,6.832 38.858,8 C39.524,9.15 38.885,10.874 39.236,12.187 C39.575,13.454 41,14.624 41,16 Z" id="Shape" stroke="#000000" stroke-width="2" stroke-linecap="round" stroke-linejoin="round"/>
            <polyline id="Shape" stroke="#000000" stroke-width="2" stroke-linecap="round" stroke-linejoin="round" points="21 18 18 16 21 14"/>
            <polyline id="Shape" stroke="#000000" stroke-width="2" stroke-linecap="round" stroke-linejoin="round" points="29 18 32 16 29 14"/>
            <path d="M26,12 L24,20" id="Shape" stroke="#000000" stroke-width="2" stroke-linecap="round" stroke-linejoin="round"/>
            <path d="M29.476,30.139 C29.441,30.139 29.406,30.139 29.376,30.139 C29.1879597,30.1529817 29.0015489,30.1837712 28.819,30.231 C27.546,30.575 26.376,32 25,32 C23.624,32 22.454,30.575 21.185,30.236 C19.872,29.885 18.148,30.523 16.998,29.858 C15.832,29.184 15.527,27.365 14.581,26.419 C14.4218654,26.2648141 14.2472781,26.127423 14.06,26.009 C14.014,25.979 13.967,25.949 13.919,25.92 C13.739,25.809 13.554,25.703 13.36,25.602 L0.9,49.557 C0.724345619,49.882498 0.742701664,50.2783706 0.947723331,50.5862173 C1.152745,50.8940639 1.51094625,51.0636042 1.879,51.027 L9.285,50.287 C9.71472894,50.2437599 10.1236595,50.4812946 10.299,50.876 L13.199,57.406 C13.3521026,57.7508563 13.6862764,57.9801768 14.0631218,57.9989873 C14.4399672,58.0177979 14.7953164,57.8228956 14.982,57.495 L29.987,30.126 C29.813,30.123 29.644,30.129 29.476,30.139 Z" id="Shape" stroke="#000000" stroke-width="2" stroke-linecap="round" stroke-linejoin="round"/>
            <polygon id="Shape" fill="#FFFFFF" fill-rule="nonzero" points="0.008 49.096 6.008 37.564 12.473 25.141 14.247 26.064 7.783 38.487 1.782 50.019"/>
            <path d="M3.2,45.122 C2.96475834,44.9994409 2.6904612,44.9753653 2.43746636,45.0550709 C2.18447153,45.1347764 1.97350896,45.3117322 1.851,45.547 L0.008,49.1 L1.782,50.023 L3.628,46.475 C3.7516072,46.2389992 3.77593362,45.9634314 3.69558295,45.7094257 C3.61523229,45.45542 3.43684769,45.2439767 3.2,45.122 Z" id="Shape" fill="#000000" fill-rule="nonzero"/>
            <path d="M14.247,26.064 L12.473,25.141 L5.547,38.451 C5.30259975,38.9393976 5.49523997,39.5335462 5.97972219,39.785619 C6.4642044,40.0376918 7.06131743,39.8544463 7.321,39.374 L14.247,26.064 Z" id="Shape" fill="#000000" fill-rule="nonzero"/>
            <path d="M3.7,42 C3.58132644,42.2367755 3.55632931,42.5096013 3.63,42.764 L3.708,42.94 C3.73983271,42.9993873 3.7795232,43.054214 3.826,43.103 C3.86292562,43.1547008 3.90742427,43.2005479 3.958,43.239 C4.01155863,43.2792663 4.06767683,43.3160104 4.126,43.349 C4.36277549,43.4676736 4.63560134,43.4926707 4.89,43.419 C5.01468995,43.3751392 5.1295361,43.3071829 5.228,43.219 C5.53433559,42.9579393 5.65851155,42.5411468 5.545,42.155 C5.50051908,42.0302997 5.43263694,41.9152395 5.345,41.816 C5.26187255,41.7153478 5.15998575,41.6318006 5.045,41.57 C4.81005041,41.4463153 4.53526516,41.4221914 4.28235866,41.5030463 C4.02945217,41.5839012 3.81962408,41.7629572 3.7,42 Z" id="Shape" fill="#000000" fill-rule="nonzero"/>
            <path d="M0.9,49.557 C0.724345619,49.882498 0.742701664,50.2783706 0.947723331,50.5862173 C1.152745,50.8940639 1.51094625,51.0636042 1.879,51.027 L4.696,50.746 L16.122,28.946 C15.6920291,28.055833 15.1776743,27.2089557 14.586,26.417 C14.2207874,26.0845076 13.8074612,25.8090692 13.36,25.6" id="Shape" stroke="#000000" stroke-width="2" stroke-linecap="round" stroke-linejoin="round"/>
            <path d="M49.105,49.557 L36.64,25.6 C36.1945757,25.8099924 35.7830313,26.0853665 35.419,26.417 C34.472,27.363 34.167,29.182 33.002,29.856 C32.0357554,30.201486 30.9973466,30.2947604 29.985,30.127 L25,39.22 L35.021,57.5 C35.2076836,57.8278956 35.5630328,58.0227979 35.9398782,58.0039873 C36.3167236,57.9851768 36.6508974,57.7558563 36.804,57.411 L39.704,50.881 C39.8793405,50.4862946 40.2882711,50.2487599 40.718,50.292 L48.124,51.032 C48.4938821,51.0706627 48.8546662,50.9008696 49.0606184,50.5912065 C49.2665706,50.2815435 49.2836663,49.8831685 49.105,49.557 Z" id="Shape" stroke="#000000" stroke-width="2" stroke-linecap="round" stroke-linejoin="round"/>
            <path d="M35.608,50.247 L29.562,39.22" id="Shape" stroke="#000000" stroke-width="2" stroke-linecap="round" stroke-linejoin="round"/>
        </g>
    </g>
</svg>
